<?xml version="1.0" standalone="no"?>
<!DOCTYPE svg PUBLIC "-//W3C//DTD SVG 20010904//EN"
 "http://www.w3.org/TR/2001/REC-SVG-20010904/DTD/svg10.dtd">
<svg version="1.0" xmlns="http://www.w3.org/2000/svg"
 width="1280.000000pt" height="720.000000pt" viewBox="0 0 1280.000000 720.000000"
 preserveAspectRatio="xMidYMid meet">

<g transform="translate(0.000000,720.000000) scale(0.100000,-0.100000)"
fill="#000000" stroke="none">
<path d="M6564 5126 c-3 -8 -22 -20 -42 -27 -54 -18 -90 -48 -120 -99 -26 -44
-27 -49 -30 -250 -5 -286 12 -355 112 -467 57 -63 124 -106 199 -128 l57 -16
0 -165 c0 -90 -2 -164 -4 -164 -2 0 -21 7 -42 17 -25 10 -67 16 -119 16 -94 1
-159 -23 -217 -80 l-37 -36 -42 38 c-65 58 -120 79 -214 80 -71 0 -88 -4 -147
-33 -101 -50 -155 -129 -178 -262 -6 -38 -10 -154 -8 -280 l3 -215 77 -3 77
-3 3 268 c3 300 5 310 75 358 75 51 197 25 244 -52 l24 -38 7 -485 c4 -296 11
-511 18 -550 46 -257 219 -450 451 -505 257 -60 531 69 657 313 70 133 82 200
82 443 0 233 -8 198 100 424 129 269 280 588 280 592 0 2 -39 2 -86 1 l-86 -3
-80 -180 c-139 -317 -152 -345 -157 -339 -3 3 -56 121 -117 262 l-112 257 -86
3 c-47 1 -86 0 -86 -2 0 -5 46 -104 239 -510 34 -70 64 -138 67 -150 5 -23 -8
-54 -133 -316 -36 -74 -71 -150 -79 -167 l-14 -33 80 0 c74 0 81 2 89 23 5 12
20 45 32 72 l24 50 3 -61 c10 -207 -112 -425 -286 -511 -71 -35 -83 -38 -183
-41 -83 -3 -119 0 -161 13 -113 38 -202 116 -259 227 -56 110 -58 131 -52 665
5 460 6 490 25 530 28 61 69 87 143 91 79 4 122 -17 153 -78 21 -43 22 -54 22
-307 l0 -263 80 0 80 0 0 238 c0 252 -10 334 -49 411 -19 37 -21 58 -21 240 0
212 0 211 49 211 42 0 160 72 212 128 104 114 122 185 117 470 -3 193 -5 210
-26 250 -22 41 -92 102 -117 102 -7 0 -24 9 -38 20 -33 26 -141 29 -151 4 -9
-24 -7 -73 4 -95 15 -27 126 -28 146 -1 12 15 15 16 40 2 15 -8 36 -28 48 -43
20 -27 21 -40 21 -265 0 -235 0 -237 -26 -292 -37 -78 -87 -131 -161 -171 -58
-32 -69 -34 -153 -34 -80 0 -97 3 -148 30 -73 36 -139 109 -166 180 -18 48
-21 82 -23 282 -3 210 -2 230 16 260 11 17 35 40 54 50 32 17 34 17 47 0 11
-15 25 -17 81 -15 l69 3 0 60 0 60 -73 3 c-57 2 -74 0 -78 -12z"/>
<path d="M2655 4355 c-231 -51 -410 -209 -493 -437 -24 -66 -27 -86 -27 -218
0 -125 3 -155 23 -215 93 -282 340 -455 647 -455 156 0 300 48 422 142 43 33
112 111 136 154 6 11 -91 94 -109 94 -4 0 -32 -28 -63 -62 -110 -121 -223
-171 -391 -172 -144 0 -223 25 -323 105 -122 96 -187 235 -187 399 0 294 219
519 505 520 162 0 284 -49 392 -158 41 -41 67 -61 75 -56 7 4 34 25 60 47 55
46 55 47 -21 125 -134 135 -302 203 -499 201 -48 0 -114 -7 -147 -14z"/>
<path d="M4540 3695 l0 -645 75 0 75 0 0 645 0 645 -75 0 -75 0 0 -645z"/>
<path d="M4910 3695 l0 -645 75 0 75 0 0 645 0 645 -75 0 -75 0 0 -645z"/>
<path d="M8360 3680 l0 -632 248 4 c271 5 290 8 422 79 295 157 389 599 191
901 -79 122 -185 201 -331 249 -57 19 -95 22 -297 27 l-233 4 0 -632z m444
460 c133 -22 255 -109 314 -226 43 -85 54 -136 54 -244 -1 -199 -84 -342 -248
-424 -58 -29 -175 -46 -321 -46 l-93 0 0 475 0 475 118 0 c64 0 143 -4 176
-10z"/>
<path d="M3765 3826 c-146 -46 -247 -164 -276 -322 -30 -162 48 -337 186 -418
131 -77 323 -69 438 18 l36 27 3 -38 3 -38 78 -3 77 -3 0 386 0 386 -77 -3
-78 -3 -3 -32 -3 -32 -45 31 c-25 17 -66 37 -91 44 -57 17 -194 17 -248 0z
m252 -160 c91 -45 143 -130 143 -231 0 -288 -403 -368 -505 -101 -27 69 -17
180 20 237 76 120 217 159 342 95z"/>
<path d="M9705 3807 c-133 -35 -228 -125 -270 -256 -27 -84 -18 -208 22 -291
36 -78 98 -141 173 -178 50 -24 66 -27 165 -27 98 0 116 3 167 27 80 37 149
105 184 181 26 56 29 73 29 167 0 99 -2 110 -32 171 -64 129 -174 205 -313
214 -45 3 -95 -1 -125 -8z m167 -131 c63 -18 110 -57 140 -113 70 -131 28
-291 -94 -359 -44 -24 -64 -29 -123 -29 -59 0 -78 4 -118 28 -62 36 -103 94
-117 164 -42 202 124 366 312 309z"/>
<path d="M10561 3810 c-109 -23 -203 -96 -253 -198 -32 -64 -33 -72 -33 -182
0 -107 2 -119 29 -172 38 -75 103 -140 174 -175 52 -25 67 -28 162 -28 92 0
112 4 160 26 99 47 107 71 41 134 -31 29 -32 29 -59 12 -56 -37 -98 -51 -153
-50 -148 0 -251 144 -220 308 32 174 208 256 355 164 27 -16 52 -28 56 -27 12
5 80 89 80 99 0 13 -69 56 -119 74 -56 19 -163 27 -220 15z"/>
<path d="M7675 2866 c-101 -45 -138 -178 -74 -265 55 -76 152 -101 233 -60 52
26 82 64 97 120 21 80 -24 175 -98 205 -41 18 -119 17 -158 0z m161 -80 c28
-28 34 -42 34 -76 0 -112 -114 -166 -199 -94 -39 32 -49 89 -25 139 21 44 55
64 113 65 36 0 49 -6 77 -34z"/>
</g>
</svg>
